<svg width="1200" height="1200" xmlns="http://www.w3.org/2000/svg" xmlns:xlink="http://www.w3.org/1999/xlink" version="1.1"><g transform="scale(8.4375) translate(7.3111111587948265, 7.111111111111111)">            <linearGradient id="SvgjsLinearGradient1011"><stop id="SvgjsStop1012" stop-color="#905e26" offset="0"/><stop id="SvgjsStop1013" stop-color="#f5ec9b" offset="0.5"/><stop id="SvgjsStop1014" stop-color="#905e26" offset="1"/></linearGradient>            <g fill="url(#SvgjsLinearGradient1011)"><linearGradient id="SvgjsLinearGradient1011"><stop id="SvgjsStop1012" stop-color="#905e26" offset="0"/><stop id="SvgjsStop1013" stop-color="#f5ec9b" offset="0.5"/><stop id="SvgjsStop1014" stop-color="#905e26" offset="1"/></linearGradient><title xmlns="http://www.w3.org/2000/svg">brokerage, candle, candles, candlestick, forex, trading</title><path xmlns="http://www.w3.org/2000/svg" d="M58,88.08H35.71a2,2,0,0,1-2-2v-57a2,2,0,0,1,2-2H58a2,2,0,0,1,2,2v57A2,2,0,0,1,58,88.08Zm-20.28-4H56v-53H37.71Z"/><path xmlns="http://www.w3.org/2000/svg" d="M46.85,30.92a2,2,0,0,1-2-2V2a2,2,0,1,1,4,0v27A2,2,0,0,1,46.85,30.92Z"/><path xmlns="http://www.w3.org/2000/svg" d="M46.85,107.34a2,2,0,0,1-2-2V86.08a2,2,0,0,1,4,0v19.25A2,2,0,0,1,46.85,107.34Z"/><path xmlns="http://www.w3.org/2000/svg" d="M125.8,76.22H103.52a2,2,0,0,1-2-2V44.68a2,2,0,0,1,2-2H125.8a2,2,0,0,1,2,2V74.22A2,2,0,0,1,125.8,76.22Zm-20.28-4H123.8V46.68H105.52Z"/><path xmlns="http://www.w3.org/2000/svg" d="M114.66,46.51a2,2,0,0,1-2-2V23.61a2,2,0,0,1,4,0V44.51A2,2,0,0,1,114.66,46.51Z"/><path xmlns="http://www.w3.org/2000/svg" d="M114.66,101.77a2,2,0,0,1-2-2V74.22a2,2,0,0,1,4,0V99.77A2,2,0,0,1,114.66,101.77Z"/><path xmlns="http://www.w3.org/2000/svg" d="M91.89,43.43H69.61a2,2,0,0,1-2-2v-24a2,2,0,0,1,2-2H91.89a2,2,0,0,1,2,2v24A2,2,0,0,1,91.89,43.43Zm-20.28-4H89.89v-20H71.61Z"/><path xmlns="http://www.w3.org/2000/svg" d="M80.75,19.3a2,2,0,0,1-2-2V2a2,2,0,1,1,4,0V17.3A2,2,0,0,1,80.75,19.3Z"/><path xmlns="http://www.w3.org/2000/svg" d="M80.75,80.12a2,2,0,0,1-2-2V41.43a2,2,0,0,1,4,0V78.12A2,2,0,0,1,80.75,80.12Z"/><path xmlns="http://www.w3.org/2000/svg" d="M24.08,109H1.8a2,2,0,0,1-2-2V90.5a2,2,0,0,1,2-2H24.08a2,2,0,0,1,2,2V107A2,2,0,0,1,24.08,109ZM3.8,105H22.08V92.5H3.8Z"/><path xmlns="http://www.w3.org/2000/svg" d="M12.94,128a2,2,0,0,1-2-2V107a2,2,0,0,1,4,0V126A2,2,0,0,1,12.94,128Z"/><path xmlns="http://www.w3.org/2000/svg" d="M12.94,92.5a2,2,0,0,1-2-2V37.32a2,2,0,0,1,4,0V90.5A2,2,0,0,1,12.94,92.5Z"/></g>        </g></svg>